<svg width="32" height="32" viewBox="0 0 100 100" xmlns="http://www.w3.org/2000/svg">
  <defs>
    <linearGradient id="fireGrad" x1="0.2" y1="1" x2="0.2" y2="0">
      <stop offset="0%" stop-color="#ef4444"/>
      <stop offset="40%" stop-color="#f59e0b"/>
      <stop offset="85%" stop-color="#a78bfa"/>
      <stop offset="100%" stop-color="#c4b5fd"/>
    </linearGradient>
    <linearGradient id="bgGrad" x1="0" y1="0" x2="1" y2="1">
      <stop offset="0%" stop-color="#111120"/>
      <stop offset="100%" stop-color="#0a0a0f"/>
    </linearGradient>
  </defs>
  <rect x="0" y="0" width="100" height="100" rx="22" fill="url(#bgGrad)"/>
  <path d="M50 88 C32 88 18 76 19 62 C20 52 28 46 27 36 C27 27 22 20 20 12 C32 20 37 31 36 42 C42 30 44 14 39 2 C54 14 58 32 55 48 C61 36 63 18 58 4 C74 20 77 44 71 60 C77 48 79 32 74 18 C88 36 90 60 82 74 C80 62 80 48 76 36 C86 52 85 74 76 84 C68 90 58 88 50 88Z" fill="url(#fireGrad)"/>
</svg>
